<svg width="720" height="520" viewBox="0 0 720 520" fill="none" xmlns="http://www.w3.org/2000/svg">
  <rect width="720" height="520" rx="32" fill="url(#bg)"/>
  <circle cx="128" cy="110" r="42" fill="#F5E0BA"/>
  <path d="M0 300C94 290 166 238 252 238C344 238 412 292 510 292C586 292 650 266 720 238V520H0V300Z" fill="#7B5B4C"/>
  <path d="M78 366H642V436H78V366Z" fill="#A67A64"/>
  <path d="M134 324H586V448H134V324Z" fill="#C6977C"/>
  <path d="M190 270H530V448H190V270Z" fill="#E2B597"/>
  <path d="M238 230H482V448H238V230Z" fill="#F1CFB1"/>
  <path d="M286 192H434V448H286V192Z" fill="#F7DFC9"/>
  <path d="M204 324H250V448H204V324Z" fill="#A67A64"/>
  <path d="M470 324H516V448H470V324Z" fill="#A67A64"/>
  <path d="M320 294H400V448H320V294Z" fill="#B0816B"/>
  <path d="M0 414C108 396 214 410 304 444C396 478 524 484 720 430V520H0V414Z" fill="#4C7E71"/>
  <path d="M86 418C176 418 256 432 348 470C444 510 562 500 636 460" stroke="#FFF4E7" stroke-width="8" stroke-linecap="round" opacity="0.72"/>
  <defs>
    <linearGradient id="bg" x1="360" y1="0" x2="360" y2="520" gradientUnits="userSpaceOnUse">
      <stop stop-color="#F6E6D1"/>
      <stop offset="0.5" stop-color="#E3B893"/>
      <stop offset="1" stop-color="#8C6A58"/>
    </linearGradient>
  </defs>
</svg>
